<?xml version="1.0" standalone="no"?>
<!DOCTYPE svg PUBLIC "-//W3C//DTD SVG 20010904//EN"
 "http://www.w3.org/TR/2001/REC-SVG-20010904/DTD/svg10.dtd">
<svg version="1.0" xmlns="http://www.w3.org/2000/svg"
 width="600.000000pt" height="600.000000pt" viewBox="0 0 600.000000 600.000000"
 preserveAspectRatio="xMidYMid meet">
<metadata>
Created by potrace 1.11, written by Peter Selinger 2001-2013
</metadata>
<g transform="translate(0.000000,600.000000) scale(0.100000,-0.100000)"
fill="#000000" stroke="none">
<path d="M1170 5200 l0 -550 1832 2 1833 3 0 548 0 547 -1832 0 -1833 0 0
-550z"/>
<path d="M1170 3082 l0 -549 1518 1 1517 1 1 548 2 547 -1519 0 -1519 0 0
-548z"/>
<path d="M1170 800 l0 -550 1820 0 1820 0 0 550 0 550 -1820 0 -1820 0 0 -550z"/>
</g>
</svg>
