<?xml version="1.0" encoding="utf-8"?>
<!-- Generator: Adobe Illustrator 19.1.0, SVG Export Plug-In . SVG Version: 6.00 Build 0)  -->
<svg version="1.1" id="Layer_1" xmlns="http://www.w3.org/2000/svg" xmlns:xlink="http://www.w3.org/1999/xlink" x="0px" y="0px"
	 viewBox="0 0 215.5 33.7" style="enable-background:new 0 0 215.5 33.7;" xml:space="preserve">
<style type="text/css">
	.st0{fill:#262626;}
</style>
<g>
	<path class="st0" d="M22.4,6.8H6.7V13h13v6.7h-13V27h15.6v6.7H0V0h22.4V6.8z"/>
	<path class="st0" d="M48.4,33.7L33.2,0h7.4l8.8,19.1L58.2,0h7.4L50.4,33.7H48.4z"/>
	<path class="st0" d="M100.8,6.8H85.1V13h13v6.7h-13V27h15.6v6.7H78.3V0h22.4V6.8z"/>
	<path class="st0" d="M139.8,33.7l-18.9-19.6v19.6h-6.7V0h2.1l18.6,18.8V0h6.7v33.7H139.8z"/>
	<path class="st0" d="M179.7,0v6.7h-9.3v26.9h-6.7V6.8h-9.4V0H179.7z"/>
	<path class="st0" d="M205.2,0c5.6,0,10.1,4.6,10.1,10.1c0,4.1-2.6,8.4-6.8,9.2l7,14.4h-7.2L202,20.2v0l-3.4-7.2v20.7H192V0H205.2z
		 M205.6,13.4c1.6-0.2,2.9-1.6,2.9-3.3c0-1.9-1.5-3.4-3.4-3.4h-2.9L205.6,13.4z"/>
</g>
</svg>
