<?xml version="1.0" encoding="UTF-8" standalone="no"?>
<svg width="153px" height="24px" viewBox="0 0 153 24" version="1.1" xmlns="http://www.w3.org/2000/svg" xmlns:xlink="http://www.w3.org/1999/xlink">
    <!-- Generator: Sketch 43.2 (39069) - http://www.bohemiancoding.com/sketch -->
    <title>eventr-logo</title>
    <desc>Created with Sketch.</desc>
    <defs></defs>
    <g id="Page-1" stroke="none" stroke-width="1" fill="none" fill-rule="evenodd">
        <g id="Log-In-(Desktop)-" transform="translate(-100.000000, -45.000000)" fill="#262626">
            <g id="nav-bar">
                <g id="eventr-logo">
                    <g transform="translate(100.000000, 45.000000)">
                        <polygon id="Shape" fill-rule="nonzero" points="34.1647059 23.7882353 23.4352941 0 28.6588235 0 34.8705882 13.4823529 41.0823529 0 46.3058824 0 35.5764706 23.7882353"></polygon>
                        <polygon id="Shape" fill-rule="nonzero" points="98.6823529 23.7882353 85.3411765 9.95294118 85.3411765 23.7882353 80.6117647 23.7882353 80.6117647 0 82.0941176 0 95.2235294 13.2705882 95.2235294 0 99.9529412 0 99.9529412 23.7882353"></polygon>
                        <polygon id="Shape" fill-rule="nonzero" points="126.847059 0 126.847059 4.72941176 120.282353 4.72941176 120.282353 23.7176471 115.552941 23.7176471 115.552941 4.8 108.917647 4.8 108.917647 0"></polygon>
                        <path d="M144.847059,0 C148.8,0 151.976471,3.24705882 151.976471,7.12941176 C151.976471,10.0235294 150.141176,13.0588235 147.176471,13.6235294 L152.117647,23.7882353 L147.035294,23.7882353 L142.588235,14.2588235 L142.588235,14.2588235 L140.188235,9.17647059 L140.188235,23.7882353 L135.529412,23.7882353 L135.529412,0 L144.847059,0 Z M145.129412,9.45882353 C146.258824,9.31764706 147.176471,8.32941176 147.176471,7.12941176 C147.176471,5.78823529 146.117647,4.72941176 144.776471,4.72941176 L142.729412,4.72941176 L145.129412,9.45882353 Z" id="Shape" fill-rule="nonzero"></path>
                        <path d="M15.9885877,0 L0,0 L0,4.79315264 L15.9885877,4.79315264 L15.9885877,0 Z M0,14.0370899 L13.2496434,14.0370899 L13.2496434,9.24393723 L0,9.24393723 L0,14.0370899 Z M0,24 L15.8858773,24 L15.8858773,19.2068474 L0,19.2068474 L0,24 Z" id="E"></path>
                        <path d="M70.9885877,0 L55,0 L55,4.79315264 L70.9885877,4.79315264 L70.9885877,0 Z M55,14.0370899 L68.2496434,14.0370899 L68.2496434,9.24393723 L55,9.24393723 L55,14.0370899 Z M55,24 L70.8858773,24 L70.8858773,19.2068474 L55,19.2068474 L55,24 Z" id="E-Copy"></path>
                    </g>
                </g>
            </g>
        </g>
    </g>
</svg>